<svg xmlns="http://www.w3.org/2000/svg" width="1200" height="620" font-family="Segoe UI,Arial">
<rect width="1200" height="620" fill="#0f172a"/>
<text x="90" y="34" fill="#e2e8f0" font-size="19" font-weight="bold">QuantMechanica book — backtested cumulative net P&amp;L (2017–2025)</text>
<line x1="90" y1="570.0" x2="880" y2="570.0" stroke="#1e293b" stroke-width="1"/>
<text x="82" y="574.0" fill="#94a3b8" font-size="12" text-anchor="end">&#8364;99,739</text>
<line x1="90" y1="468.0" x2="880" y2="468.0" stroke="#1e293b" stroke-width="1"/>
<text x="82" y="472.0" fill="#94a3b8" font-size="12" text-anchor="end">&#8364;106,026</text>
<line x1="90" y1="366.0" x2="880" y2="366.0" stroke="#1e293b" stroke-width="1"/>
<text x="82" y="370.0" fill="#94a3b8" font-size="12" text-anchor="end">&#8364;112,314</text>
<line x1="90" y1="264.0" x2="880" y2="264.0" stroke="#1e293b" stroke-width="1"/>
<text x="82" y="268.0" fill="#94a3b8" font-size="12" text-anchor="end">&#8364;118,602</text>
<line x1="90" y1="162.0" x2="880" y2="162.0" stroke="#1e293b" stroke-width="1"/>
<text x="82" y="166.0" fill="#94a3b8" font-size="12" text-anchor="end">&#8364;124,889</text>
<line x1="90" y1="60.0" x2="880" y2="60.0" stroke="#1e293b" stroke-width="1"/>
<text x="82" y="64.0" fill="#94a3b8" font-size="12" text-anchor="end">&#8364;131,177</text>
<line x1="90" y1="565.8" x2="880" y2="565.8" stroke="#475569" stroke-width="1" stroke-dasharray="3,3"/>
<line x1="111.8" y1="60" x2="111.8" y2="570" stroke="#1e293b" stroke-width="1"/>
<text x="111.8" y="592" fill="#94a3b8" font-size="12" text-anchor="middle">2018</text>
<line x1="207.9" y1="60" x2="207.9" y2="570" stroke="#1e293b" stroke-width="1"/>
<text x="207.9" y="592" fill="#94a3b8" font-size="12" text-anchor="middle">2019</text>
<line x1="303.9" y1="60" x2="303.9" y2="570" stroke="#1e293b" stroke-width="1"/>
<text x="303.9" y="592" fill="#94a3b8" font-size="12" text-anchor="middle">2020</text>
<line x1="400.2" y1="60" x2="400.2" y2="570" stroke="#1e293b" stroke-width="1"/>
<text x="400.2" y="592" fill="#94a3b8" font-size="12" text-anchor="middle">2021</text>
<line x1="496.2" y1="60" x2="496.2" y2="570" stroke="#1e293b" stroke-width="1"/>
<text x="496.2" y="592" fill="#94a3b8" font-size="12" text-anchor="middle">2022</text>
<line x1="592.2" y1="60" x2="592.2" y2="570" stroke="#1e293b" stroke-width="1"/>
<text x="592.2" y="592" fill="#94a3b8" font-size="12" text-anchor="middle">2023</text>
<line x1="688.2" y1="60" x2="688.2" y2="570" stroke="#1e293b" stroke-width="1"/>
<text x="688.2" y="592" fill="#94a3b8" font-size="12" text-anchor="middle">2024</text>
<line x1="784.5" y1="60" x2="784.5" y2="570" stroke="#1e293b" stroke-width="1"/>
<text x="784.5" y="592" fill="#94a3b8" font-size="12" text-anchor="middle">2025</text>
<polyline points="92.6,565.1 94.2,565.9 97.4,566.8 99.2,567.1 100.8,565.3 102.6,565.2 103.7,565.3 105.5,566.0 108.2,567.8 109.2,567.4 111.0,563.2 112.9,562.9 114.5,564.1 116.0,564.8 117.9,561.7 119.7,562.6 121.6,562.7 123.4,562.5 125.8,562.3 128.4,561.7 129.5,561.9 131.0,562.8 132.9,562.6 134.5,562.5 136.0,562.4 137.6,560.0 138.7,559.9 140.2,557.3 141.8,556.1 143.4,555.7 145.2,555.5 146.8,557.1 147.9,556.9 149.7,554.7 151.3,554.0 153.1,553.4 154.7,553.3 156.6,553.2 158.1,551.1 159.7,551.5 161.8,553.9 163.4,551.9 165.2,552.8 166.3,553.9 168.1,552.8 169.7,553.6 171.3,554.3 173.1,554.6 175.2,553.4 177.1,553.6 179.2,553.1 182.1,551.0 183.9,550.4 185.5,549.8 186.5,552.8 188.1,554.0 189.7,553.5 191.3,553.5 192.9,553.0 195.0,552.3 196.5,550.7 198.6,551.3 200.2,551.1 201.3,548.3 203.1,547.6 204.7,546.3 208.1,546.5 210.2,549.1 212.1,549.4 213.9,547.5 215.5,548.0 217.1,547.9 218.6,547.0 219.7,546.8 222.3,548.8 223.4,549.3 225.0,548.8 226.5,546.8 228.4,547.4 230.2,545.2 231.8,546.2 234.4,547.5 236.3,548.8 237.8,550.1 239.4,550.2 241.3,551.0 242.8,550.3 244.4,548.3 245.5,547.6 247.1,547.2 248.6,542.5 250.2,544.8 252.1,546.9 253.9,548.7 255.5,549.8 256.5,547.4 258.1,544.2 259.7,544.8 261.5,546.0 263.4,547.9 264.9,549.4 266.5,549.5 267.6,548.3 270.5,548.4 272.6,549.4 274.4,551.0 276.0,552.9 277.8,552.1 279.4,552.3 280.5,550.1 282.0,550.5 283.9,547.7 286.0,545.9 288.9,544.1 290.7,542.7 292.6,541.5 294.1,541.8 296.2,542.4 297.8,542.2 298.9,540.2 300.5,540.0 304.1,539.5 305.7,537.0 307.6,536.1 309.7,534.7 311.2,534.0 312.8,532.0 314.7,532.4 316.5,531.8 318.1,527.2 319.1,535.3 320.7,531.2 322.3,530.2 323.9,530.7 325.4,525.9 326.5,526.7 329.1,524.9 330.2,522.4 331.8,517.6 333.3,517.4 334.9,515.9 336.5,517.3 337.5,516.1 339.1,513.6 340.7,512.4 342.3,513.1 343.9,514.7 344.9,514.8 346.5,514.8 348.1,513.0 350.2,513.7 351.8,513.5 353.9,513.9 355.4,515.2 357.0,513.2 358.6,509.4 359.6,510.0 361.2,510.1 362.8,510.0 365.2,511.1 366.7,512.0 368.3,512.6 370.2,512.8 371.7,512.8 373.3,513.6 374.4,511.2 376.0,510.7 378.9,506.8 379.9,506.7 381.5,505.4 383.1,504.8 384.6,506.4 386.2,502.1 387.3,499.1 388.8,500.4 390.7,500.2 392.3,499.4 393.8,500.6 395.4,496.7 396.5,496.3 398.1,498.0 400.9,490.3 402.0,491.1 403.6,491.6 405.7,491.1 407.3,490.1 408.8,489.8 410.7,492.6 412.5,494.0 414.1,493.9 415.9,491.1 418.0,491.3 420.2,489.6 421.7,491.0 423.3,491.7 425.2,492.7 426.7,493.5 428.6,492.1 430.4,492.2 431.5,492.0 433.3,490.8 434.9,489.4 436.7,489.0 438.8,487.4 440.4,487.5 442.3,488.7 444.1,489.9 445.7,489.0 448.0,490.9 449.9,490.6 452.5,489.9 453.6,486.7 455.1,485.4 456.7,487.1 458.8,483.5 460.9,481.4 462.5,480.1 464.1,480.3 465.7,481.7 467.2,484.7 469.1,485.7 470.1,482.7 472.0,482.8 473.6,480.5 475.4,479.7 477.0,481.2 479.3,481.9 480.9,479.9 482.8,477.5 484.3,480.9 485.9,478.9 487.5,478.5 488.6,481.1 490.4,481.6 493.3,478.7 495.7,476.2 497.2,475.7 499.1,474.5 500.9,473.5 502.8,478.1 504.3,478.0 506.2,477.5 507.8,478.5 508.8,479.1 510.6,477.3 512.2,478.0 513.8,474.8 515.4,474.8 517.0,474.9 518.0,473.2 519.6,473.5 521.4,470.7 523.3,470.8 524.9,472.8 526.4,470.8 528.0,465.8 529.9,466.8 530.9,465.8 532.5,468.9 534.3,469.5 535.9,467.0 537.7,464.9 539.3,467.0 540.9,466.8 543.3,464.5 547.0,466.0 549.1,464.1 550.6,462.5 552.5,461.6 554.1,460.8 555.6,459.8 558.0,461.8 559.6,460.1 561.2,455.6 562.2,454.8 564.1,451.9 565.9,449.2 567.7,449.3 570.4,450.4 571.4,450.8 573.0,449.3 574.6,450.0 576.4,450.4 578.0,449.8 579.8,450.2 581.9,450.9 584.0,444.4 585.9,444.2 587.7,443.2 589.6,442.3 593.0,443.5 594.8,442.9 596.7,438.7 598.3,440.4 600.6,440.4 602.2,438.7 603.8,438.1 605.9,438.5 607.7,434.6 609.3,433.3 610.9,429.1 611.9,428.7 613.5,430.5 615.1,429.9 616.7,428.2 618.8,428.9 620.3,429.7 622.2,431.4 623.8,429.5 624.8,424.1 626.7,425.0 629.3,424.0 630.3,418.3 632.2,416.8 633.8,414.4 635.6,414.5 637.4,416.1 639.3,419.7 641.1,421.6 642.7,416.6 644.6,416.8 646.4,417.7 648.0,418.1 649.8,412.1 651.7,413.1 653.2,413.5 654.3,404.3 655.9,404.5 657.7,407.6 659.3,407.0 660.9,410.5 662.7,411.6 664.3,411.7 665.3,406.6 666.9,405.7 668.8,403.9 670.6,397.8 672.2,395.4 674.0,393.8 675.9,391.7 677.4,386.7 679.3,384.3 680.9,373.6 681.9,375.5 685.3,374.3 689.0,368.9 690.9,367.9 693.0,368.7 694.5,365.2 696.1,354.6 698.0,352.6 699.8,353.5 701.6,353.4 703.5,351.1 705.1,348.0 706.6,342.1 707.7,344.2 709.3,342.1 711.1,344.0 714.3,343.9 715.8,342.0 716.9,340.9 718.5,340.5 720.1,340.3 721.6,341.6 723.7,339.4 725.3,340.4 727.4,341.2 729.0,339.6 730.6,341.2 731.6,337.3 733.5,334.3 735.0,333.0 736.6,332.4 738.7,329.9 740.3,328.6 741.9,328.3 743.5,324.5 744.5,321.5 746.1,318.9 747.9,314.7 749.8,312.2 751.4,308.6 752.9,306.7 754.5,308.2 755.6,301.1 757.1,302.6 759.0,295.4 760.6,294.4 762.1,295.5 764.0,294.2 765.8,287.9 767.4,286.6 768.5,286.7 770.0,277.1 771.9,280.0 773.7,276.4 775.6,273.6 777.4,268.7 779.0,269.8 780.8,269.5 783.2,268.2 786.3,265.4 787.9,265.4 789.5,265.2 791.6,266.3 793.2,265.4 794.2,261.3 795.8,256.9 797.7,258.2 799.5,257.1 801.1,252.6 802.7,253.5 804.2,250.0 805.3,245.7 806.9,247.4 808.4,243.0 810.3,244.6 811.9,241.0 813.4,238.2 815.3,239.7 816.3,240.6 817.9,234.6 819.5,234.9 821.1,234.0 822.7,231.3 823.7,228.3 825.3,227.9 827.1,225.9 828.7,226.6 830.3,225.2 831.9,220.6 833.7,221.0 834.8,218.6 836.3,221.9 837.9,221.3 839.8,219.8 841.3,219.3 843.2,219.1 845.3,217.4 847.1,220.2 849.0,219.7 850.5,218.8 852.6,215.8 855.0,215.1 856.8,217.2 858.4,218.0 861.3,217.6 864.2,209.6 867.1,209.0 868.7,205.4 870.5,206.2 871.6,207.5 873.2,207.9 874.7,209.1 876.6,205.8 878.7,205.7 880.0,206.3" fill="none" stroke="#64748b" stroke-width="2.4"/>
<line x1="894" y1="72" x2="924" y2="72" stroke="#64748b" stroke-width="3"/>
<text x="930" y="76" fill="#e2e8f0" font-size="13">Current 15-sleeve</text>
<text x="930" y="93" fill="#64748b" font-size="13" font-weight="bold">+22.2% total</text>
<polyline points="90.0,565.6 93.7,564.5 96.1,564.9 97.9,565.2 99.7,567.0 101.3,564.2 102.9,565.9 104.7,565.1 106.3,565.4 108.2,567.1 109.2,566.9 111.0,563.9 112.9,563.3 114.5,564.3 116.0,567.1 117.9,564.3 119.5,564.3 121.3,563.9 123.1,563.3 125.0,565.5 127.1,565.4 128.7,565.4 130.2,565.5 131.3,565.9 133.1,565.0 134.7,564.5 136.3,564.6 137.9,562.8 139.5,561.9 140.5,559.7 142.1,558.6 143.7,558.3 145.5,558.7 147.1,557.6 148.9,556.5 150.5,555.3 151.6,556.9 153.4,556.7 155.0,556.0 156.8,553.8 158.4,553.9 160.0,553.7 161.8,554.3 163.4,552.2 165.2,553.4 166.3,554.2 168.1,553.2 169.7,553.8 171.3,553.9 173.1,555.2 175.2,553.8 177.1,553.7 179.2,553.5 181.0,551.3 182.6,550.3 184.4,549.0 186.0,549.9 187.6,552.4 189.2,551.3 190.2,552.2 191.8,551.9 193.6,552.7 195.5,551.7 197.1,550.4 198.9,549.3 200.5,549.4 202.3,548.0 203.9,547.0 205.0,546.3 208.1,545.6 210.2,547.9 211.8,548.8 213.6,547.2 215.2,547.7 216.8,548.1 217.9,547.9 219.4,547.6 221.5,548.8 223.1,549.9 224.7,549.5 226.3,546.8 228.1,548.0 230.0,546.8 231.5,546.6 233.9,548.0 235.7,547.2 237.3,546.6 238.9,548.1 240.0,547.1 241.5,546.6 243.1,546.8 244.7,547.3 246.3,545.9 247.3,545.0 248.9,541.8 250.5,542.8 252.3,544.8 254.2,546.6 255.7,547.3 257.3,545.5 258.4,544.2 259.9,543.3 261.5,543.7 263.4,544.4 264.9,545.4 266.5,544.2 267.6,542.6 269.2,542.7 271.3,542.7 273.1,543.9 274.9,545.6 276.5,545.3 278.4,544.5 279.9,546.6 281.5,543.3 283.1,544.1 284.1,542.4 286.0,541.7 288.9,539.6 290.7,537.6 292.6,536.5 294.1,536.4 296.2,536.8 297.8,536.7 298.9,535.5 300.5,535.3 303.6,534.8 305.5,533.6 307.3,530.6 309.1,530.2 310.7,529.5 311.8,529.2 313.3,528.7 315.2,529.0 317.0,526.2 318.6,528.0 320.2,530.6 321.8,528.8 322.8,527.7 324.4,527.2 326.0,524.5 327.6,522.3 329.4,518.6 331.0,518.9 332.0,516.9 333.6,515.6 335.2,515.4 336.8,518.4 338.3,518.5 339.4,516.6 341.0,515.9 342.5,516.8 344.1,517.0 345.7,517.8 346.8,517.5 348.3,516.4 350.2,517.4 351.8,518.1 353.3,517.7 355.2,517.9 356.8,517.4 357.8,515.3 359.4,513.2 361.0,516.8 362.5,516.6 364.6,517.8 366.2,516.3 367.8,517.8 368.9,519.1 370.7,518.4 372.3,518.0 373.9,517.9 375.4,515.9 377.0,515.6 379.1,512.9 380.7,512.7 381.7,510.8 383.3,511.3 384.9,510.5 386.5,510.2 388.1,507.5 389.1,508.0 391.0,507.4 392.5,507.7 394.1,506.7 395.7,505.9 397.3,505.7 399.1,507.0 400.9,503.2 402.0,503.1 403.6,503.2 405.7,503.3 407.3,502.4 408.8,502.0 410.7,503.9 412.5,504.9 414.1,504.9 415.9,499.6 417.8,498.9 419.6,498.6 421.2,498.3 422.3,498.3 423.8,499.1 425.4,501.5 427.3,502.0 428.8,500.2 430.4,500.0 431.5,499.3 433.3,500.2 434.9,499.2 436.7,499.0 438.6,498.2 440.1,498.1 442.0,499.4 443.6,498.2 445.1,499.7 447.0,497.8 448.8,499.1 450.7,497.6 452.5,496.0 453.6,493.6 455.1,492.7 456.7,493.9 458.3,491.3 460.7,491.1 462.2,488.6 463.8,487.6 465.4,487.4 466.5,490.2 468.0,491.6 469.9,492.1 471.7,488.9 473.3,485.8 474.9,484.6 476.7,484.9 479.1,485.0 480.7,485.3 482.5,481.0 484.1,483.2 485.7,482.0 486.7,481.1 488.3,483.4 490.1,484.9 492.0,481.7 493.5,481.2 495.9,479.3 497.5,478.6 499.3,477.7 500.9,476.9 502.8,479.7 504.3,480.8 506.2,480.2 507.8,479.3 508.8,479.7 510.6,478.2 512.2,478.7 513.8,479.4 515.4,477.7 517.0,477.4 518.0,476.9 519.6,476.9 521.4,474.0 523.3,474.1 524.9,473.9 526.4,472.8 528.0,469.1 529.9,472.1 530.9,473.1 532.5,476.0 534.3,475.3 535.9,473.6 537.7,471.6 539.3,473.0 540.9,472.6 542.0,471.5 545.4,469.9 547.5,467.9 549.3,467.9 550.9,466.6 552.7,465.8 554.3,466.2 555.9,464.6 558.3,465.1 559.8,464.3 561.4,460.2 563.0,458.6 564.1,456.9 565.6,458.1 567.5,455.7 569.3,457.3 570.9,459.7 572.5,460.4 574.0,460.8 575.1,459.8 576.9,460.4 578.8,457.7 580.4,458.4 582.2,459.4 584.0,453.0 585.9,452.6 587.5,451.7 589.3,450.9 591.4,450.5 593.3,452.2 595.1,446.2 596.7,445.9 598.3,446.8 600.4,446.4 601.9,442.8 603.5,440.4 604.6,441.3 607.2,441.2 608.2,437.0 609.8,435.1 611.4,436.4 613.0,434.9 614.6,435.5 615.6,434.2 617.2,435.9 619.3,435.2 620.9,436.1 622.5,438.1 624.0,436.0 625.9,433.0 628.0,432.7 629.6,431.7 631.1,427.3 632.2,426.3 633.8,424.6 635.6,424.6 637.4,425.1 639.3,427.6 640.9,427.5 642.4,426.6 644.3,425.2 646.1,425.0 647.7,422.1 648.8,420.2 650.6,418.4 652.2,418.8 653.8,415.4 655.3,410.9 657.2,411.9 658.8,413.6 659.8,412.7 661.4,416.7 663.2,415.7 664.8,413.3 666.4,411.6 668.0,410.7 669.8,409.1 670.9,404.1 672.4,404.5 674.3,400.4 676.1,399.7 677.7,397.5 679.5,391.2 681.1,389.9 682.7,390.0 685.3,387.9 689.0,386.8 690.9,385.5 693.0,386.1 694.5,382.6 696.1,375.9 698.0,374.5 699.8,374.4 701.4,374.6 703.2,373.9 704.8,373.1 705.8,368.7 707.4,370.7 709.0,367.9 710.8,369.2 714.0,369.0 715.1,367.6 716.6,366.0 718.2,366.0 719.8,364.0 721.4,366.2 722.4,364.2 724.3,363.9 726.1,364.2 727.9,364.1 729.5,361.6 731.1,359.6 732.7,358.8 734.3,355.3 735.3,355.6 736.9,356.9 739.0,354.9 740.6,354.3 742.2,351.2 743.7,348.8 745.3,345.6 746.4,343.2 748.2,339.8 749.8,338.8 751.4,336.8 752.9,335.7 754.5,336.9 755.6,330.9 757.1,332.0 759.0,327.2 760.6,327.0 762.1,326.1 764.0,326.1 765.8,321.6 767.4,320.3 768.5,321.1 770.0,315.2 771.9,316.8 773.7,311.5 775.3,308.9 777.1,305.2 778.7,305.5 780.6,305.7 782.4,305.0 784.8,304.0 786.6,304.1 788.2,304.6 789.8,304.5 791.9,301.3 793.4,302.3 795.0,298.6 796.1,296.0 797.9,297.5 799.8,299.4 801.3,293.7 802.9,294.6 804.5,290.4 806.1,287.8 807.1,287.4 808.7,286.9 810.3,288.0 811.9,280.1 813.4,277.8 815.3,278.9 816.3,278.9 817.9,274.6 819.5,275.1 821.1,273.8 822.7,271.9 823.7,270.8 825.3,270.4 827.1,270.3 828.7,269.7 830.3,272.6 831.9,269.0 832.9,269.8 834.5,269.9 836.1,273.0 837.6,271.6 839.5,271.8 841.1,273.4 842.1,274.0 844.0,272.9 845.8,274.0 847.6,274.0 849.5,268.0 851.1,267.6 852.9,263.9 855.0,261.8 856.6,262.5 858.2,261.2 860.5,255.9 863.2,257.1 865.5,254.0 867.6,254.1 869.2,252.4 870.8,251.4 872.4,252.2 873.4,252.6 875.0,251.0 877.9,250.8 878.9,248.7 880.0,249.3" fill="none" stroke="#059669" stroke-width="2.4"/>
<line x1="894" y1="118" x2="924" y2="118" stroke="#059669" stroke-width="3"/>
<text x="930" y="122" fill="#e2e8f0" font-size="13">Planned 20-sleeve (native)</text>
<text x="930" y="139" fill="#059669" font-size="13" font-weight="bold">+19.5% total</text>
<polyline points="90.0,565.5 93.7,563.8 96.1,564.3 97.9,564.8 99.7,567.7 101.3,563.3 102.9,566.0 104.7,564.7 106.3,565.2 108.2,567.9 109.2,567.6 111.0,562.8 112.9,561.8 114.5,563.5 116.0,567.8 117.9,563.4 119.5,563.4 121.3,562.7 123.1,561.8 125.0,565.4 127.1,565.3 128.7,565.2 130.2,565.4 131.3,565.9 133.1,564.5 134.7,563.8 136.3,564.0 137.9,561.0 139.5,559.6 140.5,556.0 142.1,554.3 143.7,553.9 145.5,554.6 147.1,552.7 148.9,551.0 150.5,549.0 151.6,551.6 153.4,551.4 155.0,550.3 156.8,546.6 158.4,546.8 160.0,546.4 161.8,547.4 163.4,544.0 165.2,546.0 166.3,547.3 168.1,545.7 169.7,546.6 171.3,546.8 173.1,549.0 175.2,546.7 177.1,546.5 179.2,546.1 181.0,542.7 182.6,541.0 184.4,539.0 186.0,540.5 187.6,544.4 189.2,542.6 190.2,544.2 191.8,543.7 193.6,544.9 195.5,543.4 197.1,541.3 198.9,539.4 200.5,539.7 202.3,537.5 203.9,535.8 205.0,534.6 208.1,533.6 210.2,537.2 211.8,538.7 213.6,536.1 215.2,537.0 216.8,537.7 217.9,537.3 219.4,536.8 221.5,538.7 223.1,540.4 224.7,539.7 226.3,535.5 228.1,537.4 230.0,535.5 231.5,535.2 233.9,537.4 235.7,536.1 237.3,535.3 238.9,537.6 240.0,536.0 241.5,535.2 243.1,535.5 244.7,536.2 246.3,534.1 247.3,532.7 248.9,527.5 250.5,529.2 252.3,532.3 254.2,535.1 255.7,536.4 257.3,533.4 258.4,531.3 259.9,529.9 261.5,530.6 263.4,531.7 264.9,533.3 266.5,531.4 267.6,528.8 269.2,529.0 271.3,529.0 273.1,530.9 274.9,533.6 276.5,533.1 278.4,531.8 279.9,535.1 281.5,529.9 283.1,531.2 284.1,528.5 286.0,527.3 288.9,524.0 290.7,520.9 292.6,519.1 294.1,518.9 296.2,519.5 297.8,519.4 298.9,517.5 300.5,517.1 303.6,516.4 305.5,514.4 307.3,509.7 309.1,509.0 310.7,507.8 311.8,507.4 313.3,506.6 315.2,507.2 317.0,502.6 318.6,505.6 320.2,509.7 321.8,506.8 322.8,505.0 324.4,504.2 326.0,499.9 327.6,496.4 329.4,490.5 331.0,491.0 332.0,487.9 333.6,485.8 335.2,485.4 336.8,490.1 338.3,490.3 339.4,487.3 341.0,486.2 342.5,487.7 344.1,487.9 345.7,489.3 346.8,488.8 348.3,487.0 350.2,488.5 351.8,489.7 353.3,489.2 355.2,489.4 356.8,488.7 357.8,485.3 359.4,481.9 361.0,487.6 362.5,487.3 364.6,489.3 366.2,486.8 367.8,489.2 368.9,491.3 370.7,490.2 372.3,489.6 373.9,489.3 375.4,486.1 377.0,485.8 379.1,481.5 380.7,481.1 381.7,478.1 383.3,478.9 384.9,477.6 386.5,477.1 388.1,472.8 389.1,473.7 391.0,472.7 392.5,473.1 394.1,471.5 395.7,470.3 397.3,470.0 399.1,472.0 400.9,466.0 402.0,465.7 403.6,466.0 405.7,466.0 407.3,464.7 408.8,464.1 410.7,467.1 412.5,468.7 414.1,468.7 415.9,460.2 417.8,459.1 419.6,458.5 421.2,458.2 422.3,458.2 423.8,459.4 425.4,463.2 427.3,464.0 428.8,461.1 430.4,460.8 431.5,459.8 433.3,461.2 434.9,459.6 436.7,459.3 438.6,457.9 440.1,457.8 442.0,459.8 443.6,458.0 445.1,460.4 447.0,457.4 448.8,459.5 450.7,457.0 452.5,454.5 453.6,450.6 455.1,449.2 456.7,451.1 458.3,447.0 460.7,446.6 462.2,442.7 463.8,441.1 465.4,440.7 466.5,445.2 468.0,447.5 469.9,448.2 471.7,443.1 473.3,438.2 474.9,436.2 476.7,436.8 479.1,437.0 480.7,437.5 482.5,430.6 484.1,434.0 485.7,432.2 486.7,430.7 488.3,434.3 490.1,436.8 492.0,431.6 493.5,430.9 495.9,427.9 497.5,426.7 499.3,425.2 500.9,424.0 502.8,428.5 504.3,430.2 506.2,429.2 507.8,427.8 508.8,428.4 510.6,426.1 512.2,426.9 513.8,428.0 515.4,425.3 517.0,424.8 518.0,424.0 519.6,424.0 521.4,419.4 523.3,419.5 524.9,419.2 526.4,417.5 528.0,411.6 529.9,416.4 530.9,418.0 532.5,422.6 534.3,421.4 535.9,418.7 537.7,415.5 539.3,417.8 540.9,417.1 542.0,415.4 545.4,412.8 547.5,409.7 549.3,409.6 550.9,407.5 552.7,406.3 554.3,406.9 555.9,404.4 558.3,405.1 559.8,403.8 561.4,397.3 563.0,394.8 564.1,392.0 565.6,394.0 567.5,390.1 569.3,392.7 570.9,396.6 572.5,397.7 574.0,398.3 575.1,396.7 576.9,397.6 578.8,393.3 580.4,394.5 582.2,396.0 584.0,385.9 585.9,385.2 587.5,383.8 589.3,382.6 591.4,381.9 593.3,384.6 595.1,375.0 596.7,374.5 598.3,376.0 600.4,375.3 601.9,369.6 603.5,365.8 604.6,367.1 607.2,367.0 608.2,360.3 609.8,357.3 611.4,359.5 613.0,357.1 614.6,357.9 615.6,355.9 617.2,358.6 619.3,357.5 620.9,358.9 622.5,362.1 624.0,358.8 625.9,354.0 628.0,353.5 629.6,351.8 631.1,344.9 632.2,343.3 633.8,340.5 635.6,340.6 637.4,341.3 639.3,345.4 640.9,345.2 642.4,343.7 644.3,341.5 646.1,341.2 647.7,336.6 648.8,333.5 650.6,330.7 652.2,331.3 653.8,325.9 655.3,318.8 657.2,320.2 658.8,323.1 659.8,321.5 661.4,327.9 663.2,326.4 664.8,322.5 666.4,319.9 668.0,318.3 669.8,315.8 670.9,307.9 672.4,308.5 674.3,301.9 676.1,300.8 677.7,297.4 679.5,287.3 681.1,285.2 682.7,285.4 685.3,282.0 689.0,280.2 690.9,278.2 693.0,279.1 694.5,273.6 696.1,262.9 698.0,260.6 699.8,260.5 701.4,260.9 703.2,259.7 704.8,258.3 705.8,251.4 707.4,254.6 709.0,250.1 710.8,252.3 714.0,251.8 715.1,249.6 716.6,247.1 718.2,247.1 719.8,243.8 721.4,247.4 722.4,244.1 724.3,243.8 726.1,244.2 727.9,244.0 729.5,240.1 731.1,236.8 732.7,235.6 734.3,230.0 735.3,230.5 736.9,232.5 739.0,229.4 740.6,228.3 742.2,223.5 743.7,219.6 745.3,214.6 746.4,210.7 748.2,205.2 749.8,203.7 751.4,200.5 752.9,198.8 754.5,200.7 755.6,191.1 757.1,192.8 759.0,185.2 760.6,184.8 762.1,183.4 764.0,183.4 765.8,176.3 767.4,174.2 768.5,175.5 770.0,166.0 771.9,168.5 773.7,160.1 775.3,156.0 777.1,150.1 778.7,150.6 780.6,150.8 782.4,149.7 784.8,148.1 786.6,148.3 788.2,149.2 789.8,149.0 791.9,143.9 793.4,145.5 795.0,139.5 796.1,135.5 797.9,137.7 799.8,140.8 801.3,131.7 802.9,133.2 804.5,126.5 806.1,122.3 807.1,121.7 808.7,120.8 810.3,122.6 811.9,110.1 813.4,106.4 815.3,108.1 816.3,108.1 817.9,101.3 819.5,102.1 821.1,100.0 822.7,97.0 823.7,95.1 825.3,94.6 827.1,94.4 828.7,93.5 830.3,98.0 831.9,92.4 832.9,93.6 834.5,93.8 836.1,98.7 837.6,96.4 839.5,96.7 841.1,99.4 842.1,100.3 844.0,98.6 845.8,100.3 847.6,100.2 849.5,90.7 851.1,90.1 852.9,84.2 855.0,80.8 856.6,81.9 858.2,79.8 860.5,71.5 863.2,73.3 865.5,68.3 867.6,68.5 869.2,65.8 870.8,64.3 872.4,65.5 873.4,66.2 875.0,63.7 877.9,63.2 878.9,60.0 880.0,60.8" fill="none" stroke="#ea580c" stroke-width="2.4" stroke-dasharray="8,5"/>
<line x1="894" y1="164" x2="924" y2="164" stroke="#ea580c" stroke-width="3" stroke-dasharray="8,5"/>
<text x="930" y="168" fill="#e2e8f0" font-size="13">Planned 20-sleeve (DD-matched x1.60)</text>
<text x="930" y="185" fill="#ea580c" font-size="13" font-weight="bold">+31.1% total</text>
<text x="894" y="580" fill="#64748b" font-size="11">RISK_FIXED backtest basis;</text>
<text x="894" y="596" fill="#64748b" font-size="11">relative shape, not live sizing.</text>
</svg>