<svg xmlns="http://www.w3.org/2000/svg" width="1200" height="620" font-family="Segoe UI,Arial">
<rect width="1200" height="620" fill="#0f172a"/>
<text x="90" y="34" fill="#e2e8f0" font-size="18" font-weight="bold">QM book @ LIVE sizing (RISK_PERCENT SUM=9.75%) — backtested equity 2017-2025</text>
<line x1="90" y1="570.0" x2="870" y2="570.0" stroke="#1e293b"/>
<text x="82" y="574.0" fill="#94a3b8" font-size="12" text-anchor="end">&#8364;99,044</text>
<line x1="90" y1="468.0" x2="870" y2="468.0" stroke="#1e293b"/>
<text x="82" y="472.0" fill="#94a3b8" font-size="12" text-anchor="end">&#8364;123,820</text>
<line x1="90" y1="366.0" x2="870" y2="366.0" stroke="#1e293b"/>
<text x="82" y="370.0" fill="#94a3b8" font-size="12" text-anchor="end">&#8364;148,596</text>
<line x1="90" y1="264.0" x2="870" y2="264.0" stroke="#1e293b"/>
<text x="82" y="268.0" fill="#94a3b8" font-size="12" text-anchor="end">&#8364;173,372</text>
<line x1="90" y1="162.0" x2="870" y2="162.0" stroke="#1e293b"/>
<text x="82" y="166.0" fill="#94a3b8" font-size="12" text-anchor="end">&#8364;198,148</text>
<line x1="90" y1="60.0" x2="870" y2="60.0" stroke="#1e293b"/>
<text x="82" y="64.0" fill="#94a3b8" font-size="12" text-anchor="end">&#8364;222,924</text>
<line x1="111.6" y1="60" x2="111.6" y2="570" stroke="#1e293b"/>
<text x="111.6" y="592" fill="#94a3b8" font-size="12" text-anchor="middle">2018</text>
<line x1="206.4" y1="60" x2="206.4" y2="570" stroke="#1e293b"/>
<text x="206.4" y="592" fill="#94a3b8" font-size="12" text-anchor="middle">2019</text>
<line x1="301.2" y1="60" x2="301.2" y2="570" stroke="#1e293b"/>
<text x="301.2" y="592" fill="#94a3b8" font-size="12" text-anchor="middle">2020</text>
<line x1="396.2" y1="60" x2="396.2" y2="570" stroke="#1e293b"/>
<text x="396.2" y="592" fill="#94a3b8" font-size="12" text-anchor="middle">2021</text>
<line x1="491.0" y1="60" x2="491.0" y2="570" stroke="#1e293b"/>
<text x="491.0" y="592" fill="#94a3b8" font-size="12" text-anchor="middle">2022</text>
<line x1="585.8" y1="60" x2="585.8" y2="570" stroke="#1e293b"/>
<text x="585.8" y="592" fill="#94a3b8" font-size="12" text-anchor="middle">2023</text>
<line x1="680.6" y1="60" x2="680.6" y2="570" stroke="#1e293b"/>
<text x="680.6" y="592" fill="#94a3b8" font-size="12" text-anchor="middle">2024</text>
<line x1="775.7" y1="60" x2="775.7" y2="570" stroke="#1e293b"/>
<text x="775.7" y="592" fill="#94a3b8" font-size="12" text-anchor="middle">2025</text>
<polyline points="92.6,565.0 94.2,566.3 97.3,567.6 99.1,568.1 100.6,565.4 102.5,565.2 103.5,565.3 105.3,566.4 107.9,569.2 109.0,568.6 110.8,562.2 112.6,561.8 114.2,563.5 115.7,564.7 117.5,560.0 119.4,561.3 121.2,561.5 123.0,561.2 125.3,560.8 127.9,559.9 129.0,560.2 130.5,561.6 132.3,561.3 133.9,561.2 135.5,561.1 137.0,557.4 138.1,557.3 139.6,553.3 141.2,551.5 142.7,550.9 144.5,550.7 146.1,553.0 147.1,552.7 149.0,549.6 150.5,548.4 152.3,547.6 153.9,547.5 155.7,547.2 157.3,544.2 158.8,544.8 160.9,548.3 162.5,545.4 164.3,546.6 165.3,548.3 167.1,546.7 168.7,548.0 170.3,549.0 172.1,549.5 174.2,547.7 176.0,548.0 178.1,547.1 180.9,544.0 182.7,543.1 184.3,542.3 185.3,546.7 186.9,548.5 188.4,547.8 190.0,547.8 191.6,547.1 193.6,545.9 195.2,543.5 197.3,544.4 198.8,544.1 199.9,539.9 201.7,539.0 203.2,537.0 206.6,537.3 208.7,541.1 210.5,541.7 212.3,538.8 213.9,539.4 215.5,539.3 217.0,538.0 218.1,537.7 220.6,540.7 221.7,541.4 223.2,540.8 224.8,538.4 226.6,539.3 228.4,536.1 230.0,537.5 232.6,540.2 234.4,542.2 236.0,544.1 237.5,544.3 239.4,545.4 240.9,544.5 242.5,541.5 243.5,540.5 245.1,539.9 246.6,533.1 248.2,536.6 250.0,539.6 251.8,542.4 253.4,544.1 254.4,540.4 256.0,535.6 257.5,536.5 259.4,538.3 261.2,541.1 262.7,542.0 264.3,542.2 265.3,540.4 268.2,540.6 270.3,542.0 272.1,544.5 273.6,547.3 275.5,546.1 277.0,546.4 278.1,543.2 279.6,543.8 281.4,539.6 283.5,537.0 286.4,534.3 288.2,532.1 290.0,530.3 291.6,530.8 293.6,531.6 295.2,531.4 296.2,528.4 297.8,528.0 301.4,527.3 303.0,522.4 304.8,521.1 306.9,519.1 308.4,518.1 310.0,514.8 311.8,515.5 313.6,514.6 315.2,506.5 316.2,516.7 317.8,510.7 319.4,509.1 320.9,509.9 322.5,503.0 323.5,504.1 326.1,501.5 327.1,497.7 328.7,489.4 330.3,489.2 331.8,487.0 333.4,489.1 334.4,487.3 336.0,483.6 337.5,481.8 339.1,482.9 340.6,485.2 341.7,485.5 343.2,485.4 344.8,483.6 346.9,484.6 348.4,484.3 350.5,484.9 352.1,486.9 353.6,484.0 355.2,478.4 356.2,479.3 357.8,479.4 359.4,479.2 361.7,481.0 363.2,482.3 364.8,483.2 366.6,483.5 368.2,483.5 369.7,484.8 370.8,481.2 372.3,480.4 375.2,474.5 376.2,474.3 377.8,472.4 379.4,471.5 380.9,473.9 382.5,468.9 383.5,464.5 385.1,466.5 386.9,466.2 388.4,465.0 390.0,466.7 391.6,461.0 392.6,460.9 394.2,463.4 397.0,451.9 398.1,453.1 399.6,454.0 401.7,453.2 403.2,451.6 404.8,451.1 406.6,455.4 408.4,457.5 410.0,457.4 411.8,453.3 413.9,453.5 416.0,450.9 417.5,453.4 419.1,454.4 420.9,456.0 422.5,457.2 424.3,455.0 426.1,455.1 427.1,454.9 429.0,453.5 430.5,451.5 432.3,450.8 434.4,448.4 436.0,448.6 437.8,450.5 439.6,452.4 441.2,451.0 443.5,453.9 445.3,453.4 447.9,452.3 449.0,447.9 450.5,446.0 452.1,448.5 454.2,442.0 456.2,439.6 457.8,437.6 459.4,437.9 460.9,440.1 462.5,444.6 464.3,446.4 465.3,442.9 467.1,443.1 468.7,439.7 470.5,438.5 472.1,440.8 474.4,441.8 476.0,438.8 477.8,435.3 479.4,440.5 480.9,437.3 482.5,436.8 483.5,440.7 485.3,441.4 488.2,437.1 490.5,434.0 492.1,433.2 493.9,431.7 495.7,430.2 497.5,435.8 499.1,435.5 500.9,434.9 502.5,436.3 503.5,437.2 505.3,434.5 506.9,435.5 508.4,430.8 510.0,430.8 511.6,431.0 512.6,428.4 514.2,428.8 516.0,424.5 517.8,424.8 519.4,427.8 520.9,424.8 522.5,417.2 524.3,419.5 525.3,418.0 526.9,422.6 528.7,423.5 530.3,419.8 532.1,416.7 533.6,419.9 535.2,419.4 537.5,416.0 541.2,418.2 543.2,415.4 544.8,413.1 546.6,411.8 548.2,410.5 549.7,409.1 552.1,412.0 553.6,409.5 555.2,401.6 556.2,400.4 558.1,396.1 559.9,391.9 561.7,392.1 564.3,393.8 565.3,394.4 566.9,392.2 568.4,393.2 570.3,393.7 571.8,392.9 573.6,393.5 575.7,394.6 577.8,385.8 579.6,385.5 581.4,384.0 583.2,382.6 586.6,384.4 588.4,386.7 590.3,379.3 591.8,381.6 594.2,381.7 595.7,379.3 597.3,380.2 599.4,380.7 601.2,376.9 602.7,375.6 604.3,370.2 605.3,369.7 606.9,372.9 608.4,372.0 610.0,369.3 612.1,370.4 613.6,371.6 615.5,374.1 617.0,371.6 618.1,363.6 619.9,364.9 622.5,363.5 623.5,355.4 625.3,353.9 626.9,350.2 628.7,350.5 630.5,346.3 632.3,350.9 634.2,353.8 635.7,348.7 637.5,349.0 639.4,352.4 640.9,353.0 642.7,343.9 644.5,345.4 646.1,346.1 647.1,334.6 648.7,334.9 650.5,337.2 652.1,336.4 653.6,341.5 655.5,343.2 657.0,343.4 658.1,337.1 659.6,335.7 661.4,333.7 663.2,328.4 664.8,324.8 666.6,324.8 668.4,321.7 670.0,314.1 671.8,310.4 673.4,294.4 674.4,296.1 677.8,294.2 681.4,286.2 683.2,285.2 685.3,286.4 686.9,282.4 688.4,267.2 690.3,264.2 692.1,265.5 693.9,265.4 695.7,263.4 697.3,258.8 698.8,249.9 699.9,253.0 701.4,249.9 703.2,251.5 706.4,251.3 707.9,247.2 709.0,245.5 710.5,244.6 712.1,244.2 713.6,246.3 715.7,243.1 717.3,244.8 719.4,246.4 720.9,244.0 722.5,246.4 723.5,241.3 725.3,237.0 726.9,235.1 728.4,235.3 730.5,231.4 732.1,231.1 733.6,230.6 735.2,225.0 736.2,220.4 737.8,216.5 739.6,211.3 741.4,207.6 743.0,203.3 744.5,200.4 746.1,202.7 747.1,193.5 748.7,195.8 750.5,187.3 752.1,185.8 753.6,185.2 755.5,183.2 757.3,173.8 758.8,171.8 759.9,171.9 761.4,159.2 763.2,163.6 765.1,158.2 766.9,154.7 768.7,147.4 770.3,149.0 772.1,148.6 774.4,146.7 777.5,143.0 779.1,143.0 780.6,143.4 782.7,145.0 784.3,142.7 785.3,136.9 786.9,131.0 788.7,132.9 790.5,133.2 792.1,126.9 793.6,128.9 795.2,123.7 796.2,118.6 797.8,121.2 799.4,115.3 801.2,117.7 802.7,112.3 804.3,108.0 806.1,110.8 807.1,111.8 808.7,104.3 810.3,105.6 811.8,104.3 813.4,100.4 814.4,96.7 816.0,96.2 817.8,93.3 819.4,95.0 820.9,92.9 822.5,85.9 824.3,86.6 825.3,82.8 826.9,86.6 828.4,85.6 830.3,83.8 831.8,83.1 833.6,83.7 835.7,81.9 837.5,82.2 839.4,82.2 840.9,80.9 843.0,76.4 845.3,75.3 847.1,78.5 848.7,79.7 851.6,79.0 854.4,67.1 857.3,66.6 858.8,61.2 860.6,62.4 861.7,64.3 863.2,64.9 864.8,66.8 866.6,62.3 868.7,62.8 870.0,63.7" fill="none" stroke="#64748b" stroke-width="2.4"/>
<line x1="884" y1="72" x2="914" y2="72" stroke="#64748b" stroke-width="3"/>
<text x="920" y="76" fill="#e2e8f0" font-size="13">Current 15-sleeve (live, deployed)</text>
<text x="920" y="93" fill="#64748b" font-size="13" font-weight="bold">+122% total</text>
<polyline points="90.0,565.8 93.6,564.5 96.0,564.9 97.8,565.3 99.6,567.7 101.2,564.1 102.7,566.2 104.5,565.2 106.1,565.6 107.9,567.8 109.0,567.5 110.8,563.6 112.6,562.9 114.2,564.2 115.7,567.7 117.5,564.1 119.1,564.1 120.9,563.6 122.7,562.9 124.5,565.7 126.6,565.7 128.2,565.6 129.7,565.8 130.8,566.2 132.6,565.1 134.2,564.5 135.7,564.6 137.3,562.2 138.8,561.1 139.9,558.2 141.4,556.8 143.0,556.5 144.8,557.0 146.4,555.5 148.2,554.1 149.7,552.5 150.8,554.6 152.6,554.4 154.2,553.5 156.0,550.6 157.5,550.8 159.1,550.5 160.9,551.3 162.5,548.5 164.3,550.1 165.3,551.2 167.1,549.9 168.7,550.6 170.3,550.7 172.1,552.5 174.2,550.7 176.0,550.5 178.1,550.2 179.9,547.4 181.4,546.1 183.2,544.4 184.8,545.7 186.4,548.8 187.9,547.4 189.0,548.6 190.5,548.2 192.3,549.2 194.2,548.0 195.7,546.3 197.5,544.8 199.1,545.0 200.9,543.2 202.5,541.9 203.5,540.9 206.6,540.1 208.7,543.0 210.3,544.2 212.1,542.1 213.6,542.8 215.2,543.4 216.2,543.1 217.8,542.7 219.9,544.2 221.4,545.6 223.0,545.0 224.5,541.6 226.4,543.2 228.2,541.7 229.7,541.4 232.1,543.8 233.9,542.8 235.5,542.1 237.0,544.0 238.1,542.7 239.6,542.1 241.2,542.3 242.7,542.9 244.3,541.1 245.3,540.7 246.9,535.5 248.4,536.8 250.3,539.4 252.1,541.7 253.6,542.7 255.2,540.3 256.2,538.6 257.8,537.4 259.4,538.0 261.2,538.9 262.7,540.1 264.3,538.7 265.3,536.6 266.9,536.7 269.0,536.7 270.8,538.2 272.6,540.4 274.2,540.0 276.0,539.0 277.5,541.7 279.1,537.4 280.6,538.5 281.7,536.3 283.5,535.3 286.4,532.6 288.2,530.2 290.0,528.7 291.6,528.5 293.6,529.0 295.2,528.9 296.2,527.4 297.8,527.1 300.9,526.5 302.7,524.9 304.5,520.1 306.4,519.5 307.9,518.6 309.0,518.3 310.5,517.6 312.3,518.1 314.2,514.4 315.7,516.4 317.3,519.8 318.8,517.5 319.9,516.0 321.4,515.3 323.0,511.8 324.5,509.0 326.4,504.3 327.9,504.7 329.0,501.2 330.5,499.5 332.1,499.2 333.6,503.0 335.2,503.2 336.2,500.7 337.8,499.8 339.4,501.1 340.9,501.2 342.5,502.3 343.5,502.0 345.1,500.5 346.9,501.7 348.4,502.6 350.0,502.2 351.8,502.4 353.4,501.8 354.4,499.1 356.0,496.4 357.5,501.0 359.1,500.7 361.2,502.4 362.7,500.4 364.3,502.3 365.3,504.0 367.1,503.1 368.7,502.6 370.3,502.4 371.8,499.8 373.4,499.5 375.5,496.0 377.0,495.7 378.1,493.3 379.6,493.9 381.2,492.9 382.7,493.2 384.3,489.7 385.3,490.4 387.1,489.6 388.7,489.9 390.3,488.6 391.8,487.6 393.4,487.4 395.2,489.0 397.0,484.2 398.1,484.0 399.6,484.2 401.7,484.2 403.2,483.1 404.8,482.6 406.6,485.1 408.4,486.4 410.0,486.3 411.8,479.5 413.6,478.6 415.5,478.2 417.0,477.9 418.1,477.9 419.6,478.8 421.2,482.0 423.0,482.6 424.5,480.3 426.1,480.0 427.1,479.2 429.0,480.3 430.5,479.0 432.3,478.8 434.2,477.7 435.7,477.6 437.5,479.2 439.1,477.7 440.6,479.6 442.5,477.2 444.3,478.9 446.1,476.9 447.9,474.9 449.0,471.8 450.5,470.6 452.1,472.1 453.6,467.9 456.0,468.2 457.5,465.0 459.1,463.7 460.6,463.4 461.7,467.0 463.2,468.9 465.1,469.5 466.9,465.4 468.4,461.4 470.0,459.8 471.8,460.3 474.2,460.4 475.7,460.8 477.5,455.2 479.1,458.0 480.6,456.5 481.7,455.3 483.2,458.3 485.1,460.3 486.9,456.1 488.4,455.5 490.8,453.1 492.3,452.1 494.2,450.9 495.7,449.9 497.5,453.5 499.1,455.0 500.9,454.1 502.5,453.0 503.5,453.5 505.3,451.6 506.9,452.2 508.4,453.2 510.0,451.0 511.6,450.6 512.6,450.0 514.2,449.9 516.0,446.2 517.8,446.3 519.4,446.1 520.9,444.7 522.5,439.9 524.3,444.5 525.3,445.7 526.9,449.4 528.7,448.5 530.3,446.3 532.1,443.7 533.6,445.6 535.2,445.0 536.2,443.7 539.6,441.6 541.7,439.0 543.5,439.0 545.1,437.3 546.9,436.3 548.4,436.8 550.0,434.8 552.3,435.4 553.9,434.3 555.5,428.1 557.0,426.0 558.1,423.8 559.6,425.4 561.4,422.2 563.2,424.3 564.8,427.5 566.4,428.4 567.9,428.9 569.0,427.6 570.8,428.3 572.6,424.8 574.2,425.7 576.0,427.0 577.8,418.9 579.6,418.2 581.2,417.1 583.0,416.1 585.1,415.6 586.9,417.8 588.7,411.2 590.3,410.7 591.8,412.0 593.9,411.4 595.5,406.7 597.0,404.4 598.1,405.4 600.6,405.3 601.7,400.9 603.2,398.5 604.8,400.3 606.4,398.3 607.9,399.2 609.0,397.5 610.5,399.7 612.6,398.8 614.2,399.9 615.7,402.5 617.3,399.8 619.1,396.0 621.2,395.6 622.7,394.2 624.3,388.6 625.3,387.3 626.9,385.1 628.7,385.1 630.5,383.4 632.3,386.7 633.9,386.6 635.5,386.0 637.3,384.2 639.1,384.8 640.6,381.0 641.7,378.5 643.5,376.3 645.1,376.7 646.6,372.8 648.2,367.1 650.0,368.2 651.6,369.7 652.6,368.4 654.2,373.6 656.0,372.4 657.5,369.2 659.1,367.1 660.6,365.9 662.5,363.8 663.5,358.8 665.1,359.3 666.9,354.5 668.7,353.5 670.3,350.8 672.1,342.7 673.6,340.9 675.2,341.1 677.8,338.3 681.4,336.9 683.2,335.3 685.3,336.0 686.9,331.6 688.4,322.9 690.3,321.1 692.1,321.0 693.6,321.3 695.5,320.9 697.0,319.8 698.1,314.2 699.6,316.7 701.2,313.1 703.0,314.9 706.1,314.5 707.1,312.3 708.7,310.2 710.3,310.3 711.8,307.6 713.4,310.4 714.4,307.8 716.2,307.5 718.1,308.1 719.9,307.9 721.4,304.7 723.0,302.1 724.5,301.1 726.1,296.6 727.1,297.1 728.7,299.0 730.8,296.5 732.3,296.2 733.9,292.3 735.5,289.1 737.0,285.1 738.1,281.9 739.9,277.9 741.4,276.7 743.0,274.6 744.5,273.1 746.1,274.7 747.1,266.9 748.7,268.3 750.5,263.1 752.1,262.7 753.6,260.7 755.5,260.8 757.3,255.0 758.8,253.3 759.9,254.3 761.4,246.7 763.2,248.7 765.1,241.9 766.6,238.6 768.4,233.8 770.0,234.3 771.8,234.4 773.6,233.5 776.0,232.2 777.8,232.4 779.4,233.1 780.9,232.9 783.0,228.8 784.5,229.8 786.1,225.0 787.1,221.7 789.0,223.5 790.8,226.7 792.3,219.7 793.9,221.1 795.5,215.7 797.0,212.5 798.1,212.0 799.6,211.3 801.2,212.8 802.7,202.7 804.3,199.6 806.1,201.2 807.1,201.0 808.7,196.1 810.3,197.1 811.8,195.4 813.4,193.0 814.4,191.5 816.0,191.1 817.8,190.9 819.4,190.4 820.9,194.0 822.5,189.5 823.5,190.5 825.1,190.7 826.6,194.6 828.2,192.7 830.0,193.2 831.6,195.3 832.6,196.0 834.4,194.9 836.2,194.9 838.1,194.9 839.9,187.2 841.4,186.7 843.2,181.9 845.3,179.2 846.9,180.0 848.4,178.4 850.8,171.6 853.4,173.1 855.7,169.1 857.8,169.2 859.4,167.0 860.9,165.8 862.5,166.8 863.5,167.4 865.1,165.3 867.9,165.0 869.0,162.4 870.0,163.0" fill="none" stroke="#059669" stroke-width="2.4"/>
<line x1="884" y1="116" x2="914" y2="116" stroke="#059669" stroke-width="3"/>
<text x="920" y="120" fill="#e2e8f0" font-size="13">Planned 20-sleeve (full, SUM9.75)</text>
<text x="920" y="137" fill="#059669" font-size="13" font-weight="bold">+98% total</text>
<polyline points="90.0,565.9 93.6,564.9 96.0,566.0 97.8,566.5 99.6,567.9 101.2,564.4 102.7,565.8 104.5,565.3 106.1,566.0 107.9,568.4 109.0,568.0 110.8,563.0 112.6,562.5 114.2,564.0 115.7,566.3 117.5,562.3 119.1,562.7 120.9,562.5 122.7,561.6 124.5,563.5 126.6,563.2 128.2,563.1 129.7,563.4 130.8,564.2 132.6,563.1 134.2,563.1 135.7,563.2 137.3,560.0 138.8,559.4 139.9,556.2 141.4,554.7 143.0,554.3 144.8,554.9 146.4,554.3 148.2,553.2 149.7,551.5 150.8,551.8 152.6,551.9 154.2,551.4 156.0,548.3 157.5,548.5 159.1,548.6 160.9,550.4 162.5,547.7 164.3,549.0 165.3,550.4 167.1,549.0 168.7,549.9 170.3,550.5 172.1,551.6 174.2,549.8 176.0,549.9 178.1,549.3 179.9,546.7 181.4,545.6 183.2,544.2 184.8,545.0 186.4,549.9 187.9,548.1 189.0,548.5 190.5,547.9 192.3,548.5 194.2,547.8 195.7,545.8 197.5,544.8 199.1,544.9 200.9,542.5 202.5,541.0 203.5,540.2 206.6,539.7 208.7,543.0 210.3,544.1 212.1,541.5 213.6,542.2 215.2,542.3 216.2,542.0 217.8,541.4 219.9,542.9 221.4,544.7 223.0,544.2 224.5,540.1 226.4,541.9 228.2,540.4 229.7,540.1 232.1,543.7 233.9,542.0 235.5,542.4 237.0,545.4 238.1,544.4 239.6,543.6 241.2,543.9 242.7,543.4 244.3,541.5 245.3,542.1 246.9,535.8 248.4,537.5 250.3,541.0 252.1,542.2 253.6,543.5 255.2,540.6 256.2,538.1 257.8,537.5 259.4,538.7 261.2,540.4 262.7,542.0 264.3,541.3 265.3,539.4 266.9,540.0 269.0,539.8 270.8,541.2 272.6,544.3 274.2,543.7 276.0,542.6 277.5,546.2 279.1,540.9 280.6,541.9 281.7,537.8 283.5,537.2 286.4,534.6 288.2,532.4 290.0,530.8 291.6,530.9 293.6,531.6 295.2,531.4 296.2,529.3 297.8,528.9 300.9,528.1 302.7,527.9 304.5,521.9 306.4,521.0 307.9,519.9 309.0,518.7 310.5,518.0 312.3,518.4 314.2,514.8 315.7,518.1 317.3,520.3 318.8,516.4 319.9,515.5 321.4,512.0 323.0,510.6 324.5,509.1 326.4,503.6 327.9,504.1 329.0,498.6 330.5,496.5 332.1,496.1 333.6,499.2 335.2,498.2 336.2,495.3 337.8,494.3 339.4,495.6 340.9,495.8 342.5,496.2 343.5,496.8 345.1,495.1 346.9,496.1 348.4,496.5 350.0,496.4 351.8,496.3 353.4,495.7 354.4,492.3 356.0,488.9 357.5,493.3 359.1,493.2 361.2,493.9 362.7,493.0 364.3,495.5 365.3,496.9 367.1,496.1 368.7,495.9 370.3,495.6 371.8,492.9 373.4,492.9 375.5,488.8 377.0,487.9 378.1,485.4 379.6,486.3 381.2,484.7 382.7,484.8 384.3,480.8 385.3,481.7 387.1,480.5 388.7,480.9 390.3,480.0 391.8,478.3 393.4,477.8 395.2,479.5 397.0,471.7 398.1,472.2 399.6,472.7 401.7,472.3 403.2,471.1 404.8,470.6 406.6,473.8 408.4,475.4 410.0,475.4 411.8,470.0 413.6,469.3 415.5,469.4 417.0,469.0 418.1,468.9 419.6,470.2 421.2,472.8 423.0,473.6 424.5,470.9 426.1,471.0 427.1,470.4 429.0,470.2 430.5,468.6 432.3,468.2 434.2,466.7 435.7,466.6 437.5,468.7 439.1,467.0 440.6,469.0 442.5,467.3 444.3,469.8 446.1,468.3 447.9,466.9 449.0,463.1 450.5,461.7 452.1,463.6 453.6,458.5 456.0,458.9 457.5,454.7 459.1,454.2 460.6,453.8 461.7,459.0 463.2,461.4 465.1,462.1 466.9,456.9 468.4,453.7 470.0,452.2 471.8,453.2 474.2,454.2 475.7,455.0 477.5,448.3 479.1,451.9 480.6,450.2 481.7,448.8 483.2,452.3 485.1,453.5 486.9,450.2 488.4,449.5 490.8,446.5 492.3,445.4 494.2,443.9 495.7,442.9 497.5,447.9 499.1,448.5 500.9,447.8 502.5,447.9 503.5,448.5 505.3,446.3 506.9,447.1 508.4,445.4 510.0,444.3 511.6,444.2 512.6,442.7 514.2,442.8 516.0,439.0 517.8,439.2 519.4,440.5 520.9,438.4 522.5,432.5 524.3,436.0 525.3,435.9 526.9,439.9 528.7,439.8 530.3,437.0 532.1,434.3 533.6,436.7 535.2,436.2 536.2,435.4 539.6,433.3 541.7,430.9 543.5,431.6 545.1,428.8 546.9,427.8 548.4,428.5 550.0,426.5 552.3,428.0 553.9,426.5 555.5,419.5 557.0,417.8 558.1,414.5 559.6,416.5 561.4,412.2 563.2,413.3 564.8,415.5 566.4,415.0 567.9,415.7 569.0,414.0 570.8,414.9 572.6,412.6 574.2,414.7 576.0,415.4 577.8,406.9 579.6,406.5 581.2,405.7 583.0,404.9 585.1,404.5 586.9,407.6 588.7,400.9 590.3,400.3 591.8,402.1 593.9,401.8 595.5,398.2 597.0,397.0 598.1,398.7 600.6,398.5 601.7,393.7 603.2,391.1 604.8,390.6 606.4,389.8 607.9,391.0 609.0,388.7 610.5,391.2 612.6,390.1 614.2,390.9 615.7,393.5 617.3,389.8 619.1,385.7 621.2,385.2 622.7,383.5 624.3,376.1 625.3,375.7 626.9,372.8 628.7,373.0 630.5,370.3 632.3,374.5 633.9,375.1 635.5,374.8 637.3,372.5 639.1,373.8 640.6,370.7 641.7,368.2 643.5,366.2 645.1,367.4 646.6,362.5 648.2,356.1 650.0,357.7 651.6,359.1 652.6,358.2 654.2,364.8 656.0,363.3 657.5,359.8 659.1,357.1 660.6,355.3 662.5,352.8 663.5,347.9 665.1,348.5 666.9,343.3 668.7,342.3 670.3,339.2 672.1,327.4 673.6,323.5 675.2,324.9 677.8,322.4 681.4,318.0 683.2,316.5 685.3,317.4 686.9,312.9 688.4,301.2 690.3,298.9 692.1,299.4 693.6,299.6 695.5,297.9 697.0,295.8 698.1,288.8 699.6,292.1 701.2,288.8 703.0,291.0 706.1,290.0 707.1,288.2 708.7,285.8 710.3,284.8 711.8,283.5 713.4,287.0 714.4,283.5 716.2,283.5 718.1,284.4 719.9,284.9 721.4,282.2 723.0,278.9 724.5,278.0 726.1,273.5 727.1,273.7 728.7,274.9 730.8,271.9 732.3,271.9 733.9,267.8 735.5,264.3 737.0,259.3 738.1,256.0 739.9,252.1 741.4,250.6 743.0,247.5 744.5,245.5 746.1,247.3 747.1,238.6 748.7,240.3 750.5,233.7 752.1,232.8 753.6,231.6 755.5,230.7 757.3,223.4 758.8,221.7 759.9,222.3 761.4,211.9 763.2,214.9 765.1,209.0 766.6,205.5 768.4,199.4 770.0,200.4 771.8,200.6 773.6,199.6 776.0,197.1 777.8,196.7 779.4,198.0 780.9,197.9 783.0,194.4 784.5,195.3 786.1,189.7 787.1,185.4 789.0,187.4 790.8,191.2 792.3,182.3 793.9,184.1 795.5,178.8 797.0,174.1 798.1,174.7 799.6,171.9 801.2,173.7 802.7,166.2 804.3,162.7 806.1,164.8 807.1,165.1 808.7,159.2 810.3,160.3 811.8,158.8 813.4,155.8 814.4,152.9 816.0,152.5 817.8,151.0 819.4,151.5 820.9,152.3 822.5,146.8 823.5,146.7 825.1,145.8 826.6,150.5 828.2,148.6 830.0,148.3 831.6,148.9 832.6,148.8 834.4,147.8 836.2,147.7 838.1,148.6 839.9,142.9 841.4,142.7 843.2,138.6 845.3,136.7 846.9,137.8 848.4,137.7 850.8,133.9 853.4,133.6 855.7,128.5 857.8,127.2 859.4,124.7 860.9,124.1 862.5,125.6 863.5,126.1 865.1,123.9 867.9,123.1 869.0,121.9 870.0,122.6" fill="none" stroke="#ea580c" stroke-width="2.4" stroke-dasharray="8,5"/>
<line x1="884" y1="160" x2="914" y2="160" stroke="#ea580c" stroke-width="3" stroke-dasharray="8,5"/>
<text x="920" y="164" fill="#e2e8f0" font-size="13">Planned 20-sleeve (probation start)</text>
<text x="920" y="181" fill="#ea580c" font-size="13" font-weight="bold">+108% total</text>
</svg>